<svg viewBox="0 0 43 40" fill="none" xmlns="http://www.w3.org/2000/svg">
<g clip-path="url(#clip0_113_537)">
<path d="M36.4774 -5.18554C34.137 -7.76242 29.9062 -8.86719 24.4937 -8.86719H8.78526C8.24975 -8.86717 7.73181 -8.68262 7.32456 -8.34672C6.91731 -8.01082 6.64746 -7.54561 6.56354 -7.03472L0.0228326 33.0361C-0.107175 33.8262 0.526235 34.5418 1.35533 34.5418H11.0532L13.4887 19.6193L13.4131 20.0866C13.5866 19.0318 14.5206 18.2538 15.6265 18.2538H20.2348C29.288 18.2538 36.3768 14.7018 38.4475 4.42658C38.509 4.12268 38.5623 3.82689 38.6083 3.53792C38.3469 3.40423 38.3469 3.40423 38.6083 3.53792C39.2249 -0.259899 38.6041 -2.84506 36.4774 -5.18554Z" fill="#27346A"/>
<path d="M17.1995 2.16982C17.4646 2.04787 17.7546 1.98468 18.0482 1.98485H30.3634C31.8217 1.98485 33.1819 2.07652 34.4249 2.26977C34.7727 2.32334 35.1187 2.38729 35.4624 2.46155C35.9496 2.56539 36.4311 2.69248 36.9052 2.84235C37.5163 3.03949 38.0854 3.26908 38.6084 3.53793C39.2249 -0.261359 38.6041 -2.84505 36.4774 -5.18553C34.1356 -7.76242 29.9062 -8.86719 24.4937 -8.86719H8.78392C7.67784 -8.86719 6.73688 -8.08935 6.56354 -7.03472L0.0228335 33.0346C-0.107174 33.8261 0.526236 34.5406 1.35399 34.5406H11.0532L16.1062 3.5879C16.1559 3.28366 16.2813 2.99564 16.4718 2.74861C16.6622 2.50159 16.912 2.30296 17.1995 2.16982Z" fill="#27346A"/>
<path d="M38.4471 4.42576C36.3764 14.6995 29.2878 18.253 20.2344 18.253H15.6247C14.5188 18.253 13.5847 19.031 13.4129 20.0858L10.3829 38.6401C10.2697 39.3316 10.8233 39.9582 11.5476 39.9582H19.7226C20.1909 39.9581 20.6438 39.7966 20.9998 39.5027C21.3559 39.2089 21.5917 38.802 21.6649 38.3552L21.7445 37.9528L23.2852 28.5201L23.3845 27.9988C23.4577 27.552 23.6935 27.1452 24.0495 26.8513C24.4055 26.5575 24.8583 26.3959 25.3266 26.3958H26.5501C34.4693 26.3958 40.6702 23.288 42.4822 14.2999C43.2386 10.5438 42.8472 7.40778 40.8464 5.20506C40.2395 4.53788 39.4858 3.98687 38.6079 3.53711C38.5603 3.82754 38.5088 4.12186 38.4471 4.42576Z" fill="#2790C3"/>
<path d="M36.4407 2.70299C36.1179 2.61192 35.7919 2.53129 35.4635 2.46124C35.1196 2.3882 34.7736 2.32468 34.4259 2.27075C33.1816 2.07621 31.8224 1.98438 30.3628 1.98438H18.0492C17.7553 1.98374 17.4651 2.04748 17.2004 2.17081C16.9126 2.30354 16.6625 2.50205 16.472 2.74914C16.2815 2.99624 16.1562 3.28447 16.1069 3.58889L13.4896 19.619L13.4141 20.0863C13.5862 19.0315 14.5201 18.2535 15.6262 18.2535H20.2359C29.2891 18.2535 36.3777 14.7015 38.4485 4.42627C38.5101 4.12237 38.5618 3.82788 38.6094 3.53762C38.085 3.27023 37.5174 3.03918 36.9062 2.84334C36.7519 2.79395 36.5968 2.74716 36.4409 2.70299" fill="#1F264F"/>
</g>
<defs>
<clipPath id="clip0_113_537">
<rect width="43" height="49" fill="white" transform="translate(0 -9)"/>
</clipPath>
</defs>
</svg>
